<?xml version="1.0" encoding="UTF-8" standalone="no"?>
<svg
   xmlns:dc="http://purl.org/dc/elements/1.1/"
   xmlns:cc="http://creativecommons.org/ns#"
   xmlns:rdf="http://www.w3.org/1999/02/22-rdf-syntax-ns#"
   xmlns:svg="http://www.w3.org/2000/svg"
   xmlns="http://www.w3.org/2000/svg"
   xmlns:sodipodi="http://sodipodi.sourceforge.net/DTD/sodipodi-0.dtd"
   xmlns:inkscape="http://www.inkscape.org/namespaces/inkscape"
   width="15mm"
   height="15mm"
   viewBox="0 0 15 15"
   version="1.1"
   id="svg1085"
   inkscape:version="1.0.1 (c497b03c, 2020-09-10)"
   sodipodi:docname="birdy_logo.svg">
  <defs
     id="defs1079" />
  <sodipodi:namedview
     id="base"
     pagecolor="#ffffff"
     bordercolor="#666666"
     borderopacity="1.0"
     inkscape:pageopacity="0.0"
     inkscape:pageshadow="2"
     inkscape:zoom="5.9012821"
     inkscape:cx="-8.4023476"
     inkscape:cy="11.870831"
     inkscape:document-units="mm"
     inkscape:current-layer="g1059"
     inkscape:document-rotation="0"
     showgrid="false"
     inkscape:window-width="1252"
     inkscape:window-height="943"
     inkscape:window-x="296"
     inkscape:window-y="62"
     inkscape:window-maximized="0" />
  <metadata
     id="metadata1082">
    <rdf:RDF>
      <cc:Work
         rdf:about="">
        <dc:format>image/svg+xml</dc:format>
        <dc:type
           rdf:resource="http://purl.org/dc/dcmitype/StillImage" />
        <dc:title></dc:title>
      </cc:Work>
    </rdf:RDF>
  </metadata>
  <g
     inkscape:label="Layer 1"
     inkscape:groupmode="layer"
     id="layer1">
    <g
       aria-label="BirdyBoard"
       transform="matrix(1.4000472,0,0,1.6381493,-0.55524355,-0.41252557)"
       id="text865"
       style="font-size:1.66908px;line-height:1.25;font-family:'Lao MN';-inkscape-font-specification:'Lao MN';stroke-width:0.041727">
      <path
         d="M 1.1560134,6.6907726 H 1.591213 q 0.086388,0 0.1581062,0.019559 0.072533,0.018745 0.123877,0.053789 0.052159,0.035044 0.080683,0.083943 0.028524,0.048899 0.028524,0.1075774 0,0.044824 -0.00896,0.079868 -0.00896,0.035044 -0.031784,0.065199 -0.022819,0.029339 -0.061123,0.056234 -0.037489,0.026079 -0.095353,0.053789 v 0.00326 q 0.057864,0.00896 0.1043175,0.030969 0.046454,0.022005 0.079053,0.056234 0.033414,0.033414 0.051344,0.079053 0.01793,0.044824 0.01793,0.098613 0,0.061123 -0.026894,0.1149122 -0.026079,0.052974 -0.075793,0.092908 -0.048899,0.039119 -0.1189871,0.061939 -0.069273,0.022819 -0.1556613,0.022819 H 1.1560134 Z m 0.1817407,0.4865433 h 0.2314544 q 0.054604,0 0.096983,-0.015485 0.042379,-0.015485 0.071718,-0.042379 0.029339,-0.027709 0.044009,-0.065198 0.015485,-0.038304 0.015485,-0.082313 0,-0.047269 -0.01793,-0.085573 -0.01793,-0.039119 -0.056234,-0.066828 -0.037489,-0.027709 -0.096168,-0.042379 -0.057864,-0.01467 -0.1393616,-0.01467 H 1.3377541 Z m 0,0.5150677 h 0.1964102 q 0.079053,0 0.1369168,-0.01467 0.058679,-0.015485 0.096168,-0.042379 0.038304,-0.027709 0.056234,-0.066014 0.018745,-0.038304 0.018745,-0.083943 0,-0.051344 -0.0163,-0.095353 -0.0163,-0.044009 -0.053789,-0.075793 Q 1.7354645,7.2816334 1.675156,7.2628889 1.6156624,7.2441443 1.5284595,7.2441443 H 1.3377541 Z"
         style="stroke-width:0.041727"
         id="path1753" />
      <path
         d="m 2.2741666,6.9686809 0.1165422,-0.047269 h 0.048084 V 7.7714367 H 2.2741666 Z m -0.01304,-0.3512566 q 0,-0.019559 0.00733,-0.036674 0.00733,-0.017115 0.020374,-0.030154 0.01304,-0.01304 0.030154,-0.020374 0.017115,-0.00733 0.036674,-0.00733 0.01956,0 0.036674,0.00733 0.017115,0.00733 0.030154,0.020374 0.01304,0.01304 0.020375,0.030154 0.00733,0.017115 0.00733,0.036674 0,0.01956 -0.00733,0.036674 -0.00733,0.017114 -0.020375,0.030154 -0.01304,0.01304 -0.030154,0.020374 -0.017115,0.00733 -0.036674,0.00733 -0.019559,0 -0.036674,-0.00733 -0.017115,-0.00733 -0.030154,-0.020374 -0.01304,-0.01304 -0.020374,-0.030154 -0.00733,-0.017115 -0.00733,-0.036674 z"
         style="stroke-width:0.041727"
         id="path1755" />
      <path
         d="m 2.8617676,6.9214121 h 0.025264 l 0.022004,0.1703309 q 0.01956,-0.037489 0.048899,-0.068458 0.029339,-0.030969 0.064383,-0.053789 0.035859,-0.022819 0.074978,-0.035044 0.039934,-0.01304 0.080683,-0.01304 0.036674,0 0.071718,0.00978 0.035859,0.00978 0.066828,0.030969 l -0.052159,0.1393616 q -0.0163,-0.01793 -0.034229,-0.028524 -0.017929,-0.01141 -0.036674,-0.017115 -0.018744,-0.00652 -0.038304,-0.00815 -0.01956,-0.00163 -0.039119,-0.00163 -0.030969,0 -0.061124,0.00896 -0.029339,0.00896 -0.056234,0.026894 -0.026894,0.017115 -0.049714,0.044824 -0.02282,0.026894 -0.039934,0.063569 V 7.7714367 H 2.7435954 V 6.967051 Z"
         style="stroke-width:0.041727"
         id="path1757" />
      <path
         d="m 4.0133351,7.6907536 q -0.028524,0.022819 -0.061939,0.041564 -0.033414,0.01793 -0.070088,0.030969 -0.035859,0.012225 -0.072533,0.018745 -0.036674,0.00733 -0.071718,0.00733 -0.073348,0 -0.1377317,-0.034229 -0.063568,-0.034229 -0.1116523,-0.092093 -0.047269,-0.057864 -0.074978,-0.1344718 -0.027709,-0.077423 -0.027709,-0.1629961 0,-0.084758 0.034229,-0.164626 0.035044,-0.079868 0.094538,-0.1418066 0.059494,-0.062754 0.1385467,-0.1002426 0.079868,-0.037489 0.1703309,-0.037489 0.061124,0 0.1059475,0.021189 0.045639,0.021189 0.084758,0.056234 V 6.5587457 l 0.1165422,-0.047269 h 0.048084 v 1.2599598 h -0.164626 z m 0,-0.4881733 q 0,-0.048899 -0.018745,-0.088833 -0.01793,-0.040749 -0.047269,-0.069273 -0.029339,-0.029339 -0.066828,-0.044824 -0.036674,-0.0163 -0.074163,-0.0163 -0.049714,0 -0.092908,0.024449 -0.043194,0.024449 -0.075793,0.069273 -0.031784,0.044009 -0.050529,0.1059475 -0.018745,0.061123 -0.018745,0.1352867 0,0.079868 0.020374,0.1491415 0.020374,0.069273 0.055419,0.1214321 0.035859,0.051344 0.083128,0.081498 0.048084,0.029339 0.1026876,0.029339 0.026079,0 0.052159,-0.00652 0.026894,-0.00733 0.050529,-0.018745 0.023634,-0.012225 0.044009,-0.027709 0.021189,-0.015485 0.036674,-0.032599 z"
         style="stroke-width:0.041727"
         id="path1759" />
      <path
         d="m 4.4420146,7.968662 q 0.00978,0.00407 0.021189,0.010595 0.012225,0.00652 0.026079,0.012225 0.01467,0.00652 0.031784,0.010595 0.017115,0.00407 0.038304,0.00407 0.026079,0 0.048899,-0.01467 0.022819,-0.01467 0.041564,-0.036674 0.018744,-0.022004 0.033414,-0.048084 0.01467,-0.026079 0.024449,-0.048899 L 4.7639319,7.7323176 4.3376971,6.9368967 H 4.5259576 L 4.8470599,7.5399822 5.1102986,6.9368967 h 0.088833 L 4.7728967,7.9181332 q -0.026894,0.061123 -0.061939,0.1059474 -0.034229,0.044824 -0.073348,0.074163 -0.039119,0.029339 -0.080683,0.043194 -0.041564,0.01467 -0.080683,0.01467 -0.029339,0 -0.057049,-0.00896 -0.027709,-0.00896 -0.046454,-0.023634 z"
         style="stroke-width:0.041727"
         id="path1761" />
      <path
         d="m 5.3613128,6.6907726 h 0.4351996 q 0.086388,0 0.1581062,0.019559 0.072533,0.018745 0.123877,0.053789 0.052159,0.035044 0.080683,0.083943 0.028524,0.048899 0.028524,0.1075774 0,0.044824 -0.00896,0.079868 -0.00896,0.035044 -0.031784,0.065199 -0.022819,0.029339 -0.061124,0.056234 -0.037489,0.026079 -0.095353,0.053789 v 0.00326 q 0.057864,0.00896 0.1043175,0.030969 0.046454,0.022005 0.079053,0.056234 0.033414,0.033414 0.051344,0.079053 0.01793,0.044824 0.01793,0.098613 0,0.061123 -0.026894,0.1149122 -0.026079,0.052974 -0.075793,0.092908 -0.048899,0.039119 -0.1189871,0.061939 -0.069273,0.022819 -0.1556613,0.022819 H 5.3613128 Z m 0.1817406,0.4865433 h 0.2314545 q 0.054604,0 0.096983,-0.015485 0.042379,-0.015485 0.071718,-0.042379 0.029339,-0.027709 0.044009,-0.065198 0.015485,-0.038304 0.015485,-0.082313 0,-0.047269 -0.01793,-0.085573 -0.01793,-0.039119 -0.056234,-0.066828 -0.037489,-0.027709 -0.096168,-0.042379 -0.057864,-0.01467 -0.1393617,-0.01467 H 5.5430534 Z m 0,0.5150677 h 0.1964103 q 0.079053,0 0.1369167,-0.01467 0.058679,-0.015485 0.096168,-0.042379 0.038304,-0.027709 0.056234,-0.066014 0.018745,-0.038304 0.018745,-0.083943 0,-0.051344 -0.0163,-0.095353 -0.0163,-0.044009 -0.053789,-0.075793 Q 5.9407644,7.2816326 5.8804554,7.2628876 5.8209614,7.2441426 5.733759,7.2441426 H 5.5430534 Z"
         style="stroke-width:0.041727"
         id="path1763" />
      <path
         d="m 6.8510971,7.7893663 q -0.096168,0 -0.1768508,-0.033414 -0.080683,-0.033414 -0.1393616,-0.090463 -0.058679,-0.057864 -0.092093,-0.1344717 -0.032599,-0.077423 -0.032599,-0.1654411 0,-0.092093 0.032599,-0.1727758 0.033414,-0.081498 0.092093,-0.1418067 0.058679,-0.060308 0.1393616,-0.094538 0.080683,-0.035044 0.1768508,-0.035044 0.095353,0 0.1752208,0.031784 0.080683,0.031784 0.1393616,0.087203 0.058679,0.055419 0.091278,0.1303969 0.033414,0.074163 0.033414,0.1597362 0,0.094538 -0.033414,0.1784807 -0.032599,0.083128 -0.091278,0.1458815 -0.058679,0.061939 -0.1393616,0.098613 -0.079868,0.035859 -0.1752208,0.035859 z m 0.031784,-0.061124 q 0.048899,0 0.089648,-0.025264 0.040749,-0.025264 0.070088,-0.067643 0.029339,-0.043194 0.045639,-0.099428 0.0163,-0.056234 0.0163,-0.1189871 0,-0.090463 -0.015485,-0.169516 -0.015485,-0.079053 -0.050529,-0.1377317 -0.035044,-0.058679 -0.091278,-0.092093 -0.056234,-0.034229 -0.1369167,-0.034229 -0.041564,0 -0.080683,0.024449 -0.039119,0.023634 -0.069273,0.065198 -0.029339,0.041564 -0.047269,0.097798 -0.01793,0.055419 -0.01793,0.1181721 0,0.091278 0.018745,0.1711459 0.019559,0.079868 0.056234,0.1393617 0.037489,0.059494 0.090463,0.094538 0.053789,0.034229 0.1222467,0.034229 z"
         style="stroke-width:0.041727"
         id="path1765" />
      <path
         d="m 8.0450433,7.7714367 q -0.032599,-0.0163 -0.055419,-0.045639 -0.022005,-0.030154 -0.022005,-0.068458 -0.029339,0.022005 -0.057864,0.045639 -0.027709,0.023635 -0.061124,0.043194 -0.032599,0.018745 -0.073348,0.030969 -0.039934,0.012225 -0.092908,0.012225 -0.048899,0 -0.088833,-0.0163 -0.039119,-0.015485 -0.066828,-0.043194 -0.026894,-0.027709 -0.042379,-0.066013 -0.01467,-0.038304 -0.01467,-0.082313 0,-0.053789 0.02119,-0.096983 0.02119,-0.043194 0.057864,-0.076608 0.037489,-0.034229 0.086388,-0.060309 0.048899,-0.026894 0.1043175,-0.047269 0.055419,-0.02119 0.1140973,-0.037489 0.058679,-0.0163 0.1140973,-0.030154 v -0.052159 q 0,-0.057049 -0.00815,-0.096168 -0.00815,-0.039119 -0.025264,-0.062753 -0.017115,-0.02445 -0.044009,-0.034229 -0.026079,-0.010595 -0.062753,-0.010595 -0.035044,0 -0.064383,0.013855 -0.029339,0.013855 -0.052159,0.037489 -0.022004,0.022819 -0.036674,0.054604 -0.013855,0.030969 -0.018744,0.066013 H 7.5038963 q 0.00652,-0.053789 0.036674,-0.096168 0.030969,-0.042379 0.077423,-0.070903 0.046454,-0.029339 0.1051324,-0.044824 0.059494,-0.015485 0.1230621,-0.015485 0.081498,0 0.1369167,0.0163 0.055419,0.015485 0.088833,0.044009 0.033414,0.028524 0.047269,0.070088 0.01467,0.040749 0.01467,0.090463 v 0.5150676 q 0,0.038304 0.022005,0.068458 0.022819,0.029339 0.055419,0.045639 z M 7.9676202,7.2857083 q -0.035859,0.01141 -0.074163,0.026079 -0.038304,0.01467 -0.074978,0.033414 -0.036674,0.01793 -0.070088,0.039119 -0.033414,0.02119 -0.058679,0.045639 -0.025264,0.024449 -0.039934,0.051344 -0.01467,0.026894 -0.01467,0.056234 0,0.030969 0.01141,0.058679 0.01141,0.026894 0.030154,0.048084 0.018745,0.020374 0.043194,0.032599 0.024449,0.01141 0.050529,0.01141 0.027709,0 0.052974,-0.00733 0.025264,-0.00733 0.048899,-0.01956 0.023634,-0.01304 0.047269,-0.029339 0.023635,-0.0163 0.048084,-0.035044 z"
         style="stroke-width:0.041727"
         id="path1767" />
      <path
         d="m 8.5209917,6.9214121 h 0.025264 l 0.022004,0.1703309 q 0.019559,-0.037489 0.048899,-0.068458 0.029339,-0.030969 0.064383,-0.053789 0.035859,-0.022819 0.074978,-0.035044 0.039934,-0.01304 0.080683,-0.01304 0.036674,0 0.071718,0.00978 0.035859,0.00978 0.066828,0.030969 l -0.052159,0.1393616 q -0.0163,-0.01793 -0.034229,-0.028524 -0.01793,-0.01141 -0.036674,-0.017115 -0.018745,-0.00652 -0.038304,-0.00815 -0.019559,-0.00163 -0.039119,-0.00163 -0.030969,0 -0.061124,0.00896 -0.029339,0.00896 -0.056234,0.026894 -0.026894,0.017115 -0.049714,0.044824 -0.022819,0.026894 -0.039934,0.063569 V 7.7714367 H 8.4028196 V 6.967051 Z"
         style="stroke-width:0.041727"
         id="path1769" />
      <path
         d="m 9.6725591,7.6907536 q -0.028524,0.022819 -0.061939,0.041564 -0.033414,0.01793 -0.070088,0.030969 -0.035859,0.012225 -0.072533,0.018745 -0.036674,0.00733 -0.071718,0.00733 -0.073348,0 -0.1377317,-0.034229 -0.063569,-0.034229 -0.1116523,-0.092093 -0.047269,-0.057864 -0.074978,-0.1344718 -0.027709,-0.077423 -0.027709,-0.1629961 0,-0.084758 0.034229,-0.164626 0.035044,-0.079868 0.094538,-0.1418066 0.059494,-0.062754 0.1385466,-0.1002426 0.079868,-0.037489 0.170331,-0.037489 0.061123,0 0.1059474,0.021189 0.045639,0.021189 0.084758,0.056234 V 6.5587457 l 0.1165422,-0.047269 h 0.048084 v 1.25996 H 9.6725591 Z m 0,-0.4881733 q 0,-0.048899 -0.018745,-0.088833 -0.017929,-0.040749 -0.047269,-0.069273 -0.029339,-0.029339 -0.066828,-0.044824 -0.036674,-0.0163 -0.074163,-0.0163 -0.049714,0 -0.092908,0.024449 -0.043194,0.024449 -0.075793,0.069273 -0.031784,0.044009 -0.050529,0.1059475 -0.018744,0.061123 -0.018744,0.1352867 0,0.079868 0.020374,0.1491415 0.020375,0.069273 0.055419,0.1214321 0.035859,0.051344 0.083128,0.081498 0.048084,0.029339 0.1026875,0.029339 0.026079,0 0.052159,-0.00652 0.026894,-0.00733 0.050529,-0.018745 0.023635,-0.012225 0.044009,-0.027709 0.02119,-0.015485 0.036674,-0.032599 z"
         style="stroke-width:0.041727"
         id="path1771" />
    </g>
    <g
       id="g1059"
       transform="matrix(0.06396483,-0.03124784,0.03252535,0.06145245,2.1714321,8.4943657)">
      <path
         style="fill:none;fill-opacity:1;stroke:#000000;stroke-width:4.52158;stroke-linecap:butt;stroke-linejoin:miter;stroke-miterlimit:4;stroke-dasharray:none;stroke-opacity:1"
         d="m 25.202425,22.076897 c -18.2073297,11.740717 -41.790544,-44.061056 6.103317,-63.696982 38.39523,-57.655371 82.698058,-22.023946 82.698058,-22.023946 0,0 51.07488,30.59542 21.13416,79.42373 5.96331,4.666689 -23.43164,82.615362 -49.941172,37.773522"
         id="path881"
         sodipodi:nodetypes="ccccc" />
      <path
         style="fill:none;stroke:#000000;stroke-width:1.30998;stroke-linecap:butt;stroke-linejoin:miter;stroke-miterlimit:4;stroke-dasharray:none;stroke-opacity:1"
         d="m 73.010214,-18.237461 c -5.056197,9.2631162 -2.410409,32.906148 -2.410409,32.906148 0,0 20.319639,-14.26398618 22.410872,-21.8513622 16.988073,1.3362885 18.191523,-15.5387938 12.226463,-20.6274908 -5.281505,-5.788137 -14.48261,-2.122565 -14.48261,-2.122565 0,0 -0.454387,-8.402555 -6.833522,-9.734309 -23.786463,-2.630418 -16.854774,21.404988 -10.910794,21.429579 z"
         id="path883"
         sodipodi:nodetypes="ccccccc" />
      <path
         style="fill:none;stroke:#000000;stroke-width:2.37008;stroke-linecap:butt;stroke-linejoin:miter;stroke-miterlimit:4;stroke-dasharray:none;stroke-opacity:1"
         d="m 73.010214,-18.237461 c 12.31998,-1.672048 18.435663,5.304916 20.000463,11.0547858"
         id="path889"
         sodipodi:nodetypes="cc" />
      <ellipse
         style="fill:#000000;fill-opacity:1;stroke-width:1.31;stroke-miterlimit:4;stroke-dasharray:none"
         id="path893"
         cx="95.599838"
         cy="-21.481453"
         rx="2.503974"
         ry="2.776046"
         transform="matrix(0.99999144,0.00413717,0.00416227,0.99999134,0,0)" />
      <ellipse
         style="fill:#000000;fill-opacity:1;stroke-width:1.31;stroke-miterlimit:4;stroke-dasharray:none"
         id="path893-7"
         cx="81.391197"
         cy="-28.345905"
         rx="2.503974"
         ry="2.776046"
         transform="matrix(0.99999144,0.00413717,0.00416227,0.99999134,0,0)" />
      <path
         style="fill:none;stroke:#000000;stroke-width:1.76431;stroke-linecap:butt;stroke-linejoin:miter;stroke-miterlimit:4;stroke-dasharray:none;stroke-opacity:1"
         d="m 39.236155,-35.191873 c 0.228035,-6.602388 13.536668,-20.436991 17.11395,-20.422191 12.301965,8.939996 -4.459822,33.506154 -7.783698,32.984454 -5.881191,-1.04023 -9.057817,-8.497546 -9.330252,-12.562263 z"
         id="path928"
         sodipodi:nodetypes="cccc" />
      <path
         style="fill:#000000;stroke:#000000;stroke-width:0.400691px;stroke-linecap:butt;stroke-linejoin:miter;stroke-opacity:1"
         d="m 60.061633,-50.139361 c -13.684527,4.022694 -16.127862,23.781545 -12.072237,27.312806 3.536396,0.140143 10.486485,-13.889027 10.486485,-13.889027 0,0 3.040858,-12.727415 1.585752,-13.423779 z"
         id="path936"
         sodipodi:nodetypes="cccc" />
      <g
         id="g964"
         transform="matrix(0.76326549,1.3116873,-1.3133586,0.7478007,-85.381728,10.017275)">
        <path
           style="fill:none;stroke:#000000;stroke-width:1.165;stroke-linecap:butt;stroke-linejoin:miter;stroke-miterlimit:4;stroke-dasharray:none;stroke-opacity:1"
           d="m 70.171688,-121.76881 c -0.16821,-4.37353 -8.96755,-13.57297 -11.32254,-13.57297 -8.07422,5.88745 3.02784,22.2041 5.21461,21.86768 3.86889,-0.67285 5.93972,-5.6033 6.10793,-8.29471 z"
           id="path928-9"
           sodipodi:nodetypes="cccc" />
        <path
           style="fill:#000000;stroke:#000000;stroke-width:0.264583px;stroke-linecap:butt;stroke-linejoin:miter;stroke-opacity:1"
           d="m 56.567959,-131.79766 c 9.01992,2.70182 10.68258,15.79525 8.02232,18.12297 -2.32772,0.0831 -6.94159,-9.22775 -6.94159,-9.22775 0,0 -2.03676,-8.43799 -1.08073,-8.89522 z"
           id="path936-8"
           sodipodi:nodetypes="cccc" />
      </g>
      <path
         style="fill:#000000;stroke:#000000;stroke-width:0.400691px;stroke-linecap:butt;stroke-linejoin:miter;stroke-opacity:1"
         d="m 25.681964,-38.483484 c 0.965168,5.162911 7.785029,16.598094 7.785029,16.598094 0,0 -11.123332,-10.087212 -12.714376,-14.471058 z"
         id="path966"
         sodipodi:nodetypes="cccc" />
      <path
         style="fill:#000000;stroke:#000000;stroke-width:0.400691px;stroke-linecap:butt;stroke-linejoin:miter;stroke-opacity:1"
         d="m 13.983762,-29.926849 c 2.669112,4.544826 12.971538,13.030516 12.971538,13.030516 0,0 -13.877445,-5.761338 -16.867291,-9.359931 z"
         id="path966-2"
         sodipodi:nodetypes="cccc" />
      <path
         style="fill:#000000;stroke:#000000;stroke-width:0.400691px;stroke-linecap:butt;stroke-linejoin:miter;stroke-opacity:1"
         d="m 135.13796,15.779699 c -4.76309,2.214847 -18.03358,3.310483 -18.03358,3.310483 0,0 14.67414,3.189516 19.16683,1.936682 z"
         id="path966-4"
         sodipodi:nodetypes="cccc" />
      <path
         style="fill:#000000;stroke:#000000;stroke-width:0.302372px;stroke-linecap:butt;stroke-linejoin:miter;stroke-opacity:1"
         d="m 133.79592,28.439139 c -4.06983,0.659792 -14.4897,-1.033371 -14.4897,-1.033371 0,0 10.72503,4.934596 14.41237,4.894162 z"
         id="path966-1"
         sodipodi:nodetypes="cccc" />
      <path
         style="fill:#000000;stroke:#000000;stroke-width:0.400691px;stroke-linecap:butt;stroke-linejoin:miter;stroke-opacity:1"
         d="M 30.526052,4.1022333 C 30.953928,1.5990218 33.906455,-1.300797 35.438695,-1.7301066 47.149182,-5.0579371 51.900589,-2.8590213 51.907843,-1.1163949 50.955667,7.0480838 38.854367,15.360736 36.882467,15.46149 34.252664,15.45061 32.428045,14.022131 31.107702,12.709721 30.007872,11.724961 29.549397,6.3853499 30.526052,4.1022333 Z"
         id="path1013"
         sodipodi:nodetypes="cccccc" />
      <path
         style="fill:#000000;stroke:#000000;stroke-width:0.400691px;stroke-linecap:butt;stroke-linejoin:miter;stroke-opacity:1"
         d="m 102.10984,39.155042 c 1.51534,-2.035948 1.57734,-6.177776 0.83169,-7.585856 C 97.276498,20.775406 92.411321,18.842244 91.1461,20.03811 c -5.248038,6.318623 -2.918531,20.831939 -1.632232,22.332682 1.820499,1.901336 4.111182,2.241132 5.97035,2.294899 1.470229,0.119549 5.647702,-3.228074 6.625622,-5.510649 z"
         id="path1013-0"
         sodipodi:nodetypes="cccccc" />
    </g>
    <g
       aria-label="v 0.1"
       transform="matrix(1.4710402,0,0,1.5590915,-0.55524355,-0.41252557)"
       id="text865-4"
       style="font-size:1.04817px;line-height:1.25;font-family:'Lao MN';-inkscape-font-specification:'Lao MN';stroke-width:0.0262043">
      <path
         d="M 7.3807532,8.6272565 7.5660254,9.0239028 7.7436206,8.6272565 h 0.047086 L 7.5547658,9.1569713 H 7.5189397 L 7.2717394,8.6272565 Z"
         style="stroke-width:0.0262043"
         id="path1774" />
      <path
         d="m 8.3025081,9.1672073 q -0.056298,0 -0.1028721,-0.026614 Q 8.153574,9.1139793 8.120307,9.0663823 8.087552,9.0187843 8.069639,8.9527624 8.051726,8.8867404 8.051726,8.8084343 q 0,-0.072164 0.017913,-0.1361393 0.017913,-0.063975 0.050668,-0.1115728 0.033267,-0.048109 0.079329,-0.075747 0.046574,-0.027637 0.1028721,-0.027637 0.056298,0 0.1023604,0.027637 0.046062,0.027637 0.078817,0.075747 0.033267,0.047598 0.05118,0.1115728 0.017913,0.063975 0.017913,0.1361393 0,0.078306 -0.017913,0.1443281 -0.017913,0.066022 -0.05118,0.1136199 -0.032755,0.047598 -0.078817,0.074211 -0.046062,0.026614 -0.1023604,0.026614 z m 0,-0.033779 q 0.034291,0 0.059881,-0.026614 0.02559,-0.026614 0.04248,-0.071652 0.016889,-0.045039 0.025078,-0.1033839 0.0087,-0.058857 0.0087,-0.1233442 0,-0.064487 -0.0087,-0.1223206 -0.00819,-0.057834 -0.025078,-0.100825 -0.016889,-0.043503 -0.04248,-0.069093 -0.02559,-0.02559 -0.059881,-0.02559 -0.034803,0 -0.060393,0.02559 -0.02559,0.02559 -0.04248,0.069093 -0.016889,0.042991 -0.025078,0.100825 -0.00819,0.057834 -0.00819,0.1223206 0,0.064487 0.00819,0.1233442 0.00819,0.058345 0.025078,0.1033839 0.016889,0.045039 0.04248,0.071652 0.02559,0.026614 0.060393,0.026614 z"
         style="stroke-width:0.0262043"
         id="path1776" />
      <path
         d="m 8.7022253,9.0592171 q 0.01126,0 0.021496,0.00461 0.010236,0.00409 0.017913,0.01126 0.00768,0.00717 0.011772,0.017401 0.00461,0.00972 0.00461,0.020472 0,0.011771 -0.00461,0.021496 -0.00409,0.00972 -0.011772,0.016889 -0.00768,0.00768 -0.017913,0.011772 -0.010236,0.00409 -0.021496,0.00409 -0.011772,0 -0.022008,-0.00409 -0.010236,-0.00409 -0.017913,-0.011772 -0.00768,-0.00717 -0.012283,-0.016889 -0.00409,-0.00972 -0.00409,-0.021496 0,-0.010748 0.00409,-0.020472 0.00461,-0.010236 0.012283,-0.017401 0.00768,-0.00717 0.017913,-0.01126 0.010236,-0.00461 0.022008,-0.00461 z"
         style="stroke-width:0.0262043"
         id="path1778" />
      <path
         d="M 9.0983599,9.1513414 V 8.5770999 H 8.9842281 v -0.029173 q 0.06244,0 0.099801,-0.023543 0.037362,-0.023543 0.057834,-0.067046 h 0.052716 V 9.151341 Z"
         style="stroke-width:0.0262043"
         id="path1780" />
    </g>
  </g>
</svg>
